<svg width="181" height="60" viewBox="0 0 181 60" fill="none" xmlns="http://www.w3.org/2000/svg">
<g clip-path="url(#clip0_2937_2136)">
<path d="M26.1625 47.0695C24.3009 47.4705 22.9107 48.0486 22.3466 48.6788C20.2281 51.0381 29.2739 51.6711 30.3358 50.6946C28.318 50.7101 27.2534 50.5382 26.6153 50.3377C46.3724 45.1059 111.634 46.4731 144.049 49.9783C140.066 45.3923 53.5965 41.1554 26.1625 47.0695Z" fill="white"/>
<path d="M22.0048 3.38607H22.402C26.7209 3.7793 18.1942 17.5319 14.6697 18.5371C14.5002 18.5944 14.7279 18.8183 15.1834 18.8183C15.7501 18.8183 16.7166 18.5944 18.0247 17.5866C21.6049 15.0163 25.7571 8.81054 25.4711 4.33659C25.3016 1.65429 23.5963 0.982422 21.2659 0.982422C14.4446 0.982422 6.42891 9.03449 2.56273 17.5319C-0.847972 25.2454 -0.734105 33.2975 5.00689 35.3079C5.69007 35.4772 6.37065 35.6439 7.16771 35.6439C12.056 35.6439 17.6275 30.8366 20.7522 27.2584C20.9244 27.0918 21.4354 26.5319 21.0938 26.3652C20.9799 26.3079 20.8105 26.2532 20.6966 26.2532C20.355 26.2532 20.0134 26.5866 19.7301 26.8105C17.0026 29.7194 12.6254 33.4642 8.53146 33.4642C6.93998 33.4642 5.6318 32.8496 4.83476 31.7324C-1.13396 23.5683 14.2168 3.38607 22.0048 3.38607Z" fill="white"/>
<path d="M29.1628 15.8539C28.9933 15.63 28.71 15.406 28.4822 15.182C29.2766 13.8956 29.9016 12.6664 30.3014 11.6039C30.6404 10.6534 30.2432 8.13776 28.935 8.24971C26.5491 8.41901 23.8773 12.6117 26.7187 15.406C24.9577 18.3123 22.9664 22.0596 21.7164 23.7367C21.6608 23.8487 21.7164 24.406 22.1137 24.406C22.2275 24.406 22.3997 24.3513 22.7386 24.1274C24.0468 22.505 25.241 19.9346 27.6852 16.4112C27.8573 16.6352 28.0268 16.8591 28.0824 17.0284C29.3905 19.4867 22.1719 28.1534 22.2858 32.4008C22.2858 33.6873 22.9107 35.755 24.5578 35.755C24.7299 35.755 24.8438 35.7003 25.0133 35.643C28.0268 34.1899 34.3927 24.0154 35.1898 22.9529C35.3036 22.7862 35.1898 22.505 34.962 22.393C34.8481 22.3383 34.7926 22.281 34.6787 22.281C34.5648 22.281 34.5066 22.3383 34.3371 22.4503C33.0289 24.182 26.4909 34.0779 24.8438 33.7992C25.7521 30.557 29.221 24.7419 30.0154 22.5622C30.8681 20.4945 31.5514 17.3617 29.1628 15.8539ZM28.7656 10.5987C29.0489 10.5987 29.1072 10.9346 28.7656 11.8279C28.5379 12.5544 28.1406 13.3383 27.7434 13.9529C26.7187 12.6117 28.2545 10.5987 28.7656 10.5987Z" fill="white"/>
<path d="M34.5632 33.5762C38.6015 33.5762 42.5232 28.209 44.6258 25.3575C45.3646 24.295 45.9339 23.4564 46.2755 23.0111C46.2755 22.5632 45.9339 22.3939 45.7062 22.3939C45.6506 22.3939 45.5923 22.3939 45.5923 22.4512C43.3176 25.5267 38.6015 31.7325 34.4493 31.7325C32.8022 31.5632 33.1438 29.5502 34.1104 27.2585C34.4493 27.7064 35.0769 27.9304 35.7574 27.9304C37.6905 27.8731 40.0208 25.0215 40.7596 23.2897V23.1778C40.9317 22.8991 40.9874 22.5632 41.1012 22.1726C41.4428 20.3835 40.1347 18.8184 38.3737 18.8184C37.7488 18.8184 37.0656 18.9851 36.3824 19.433C32.8578 21.7246 28.5944 28.433 31.9496 32.4017C32.5745 33.2403 33.4854 33.5762 34.5632 33.5762ZM39.2264 21.0528C39.4541 21.0528 39.6236 21.1101 39.7375 21.2767C39.8513 21.5554 39.7931 21.8913 39.6792 22.3392C38.8265 24.3522 36.2685 26.6439 35.1325 26.6439C34.8492 26.6439 34.677 26.5319 34.5632 26.2533C35.9852 23.6257 38.146 21.0528 39.2264 21.0528Z" fill="white"/>
<path d="M52.9234 29.1048C52.8095 28.7689 52.8679 28.209 53.1511 27.3157C53.3789 25.972 54.1177 23.5137 55.254 22.6178C55.709 22.3392 55.6536 22.2819 55.3119 21.8913C54.7425 21.222 54.1177 20.9407 53.5482 20.9407C53.3235 20.9407 53.0957 20.998 52.8095 21.11C53.265 19.4876 53.5482 17.6985 52.2985 16.3574C51.9568 16.0215 51.4459 15.6855 50.8764 15.6855C50.2516 15.6855 49.571 16.0215 48.774 16.6933C45.3633 19.4329 38.9973 30.6699 43.4885 32.6803C43.8274 32.8496 44.0552 32.9616 44.3967 32.9616C44.5106 32.9616 44.6245 32.9043 44.7383 32.9043C46.2742 32.235 48.3185 28.9355 50.0238 26.1959C50.0238 26.3079 50.0238 26.3652 49.9683 26.5319C49.7405 28.0423 49.571 29.886 50.7071 30.9485C51.0488 31.2845 51.4459 31.5084 51.9568 31.5084C55.0288 31.5084 59.631 24.1282 60.7699 22.5058C60.5976 21.8913 60.4282 21.8913 59.9727 21.8913C59.6895 22.2819 54.7425 29.2715 53.265 29.2715C53.1511 29.2715 53.0372 29.2142 52.9234 29.1048ZM50.5932 19.5996C51.0488 19.209 51.3905 18.9277 51.6736 18.9277C52.1292 18.9277 52.2431 19.8235 52.0153 21.6673C51.5043 22.0605 51.2181 22.6178 50.9349 23.1777C48.8322 26.0293 46.1604 30.4459 45.3077 30.4459C44.5106 29.7741 48.3768 21.9485 50.5932 19.5996Z" fill="white"/>
<path d="M54.2856 14.6224H54.3995C57.1851 14.3437 59.9708 14.0651 62.8124 13.8958C59.743 19.9896 56.3879 28.5443 55.4214 32.3463C55.0243 33.6302 54.5688 37.0963 56.6157 37.1536C57.4129 31.4505 62.7565 20.3255 66.7924 13.6719C69.2364 13.5625 71.625 13.3932 73.9551 13.2266C75.4885 13.0573 76.1159 10.5417 74.9216 10.5989C72.8167 10.8776 70.5446 11.2135 68.2699 11.4375C69.0671 10.2083 69.8058 9.31248 70.3727 8.80988C70.9417 8.24998 70.089 6.79688 68.4392 6.79688C68.1006 6.79688 67.7589 6.85158 67.3034 7.02083C66.5646 7.29948 65.2564 9.31248 63.723 12.0521L54.2302 13.3385C53.6023 13.4505 53.7161 14.6224 54.2856 14.6224Z" fill="white"/>
<path d="M73.4997 7.58008C73.2719 7.58008 73.158 7.68948 72.8748 8.02538C71.3968 10.0384 69.4638 14.0645 69.7475 16.6348C69.8055 16.9707 69.9194 17.1374 69.9748 17.1374C70.0307 17.1374 70.0887 17.028 70.2585 16.804C71.9083 14.4551 73.4438 12.0514 75.1495 9.75978C75.2604 9.53583 75.602 9.25718 75.4327 8.92123C75.205 8.24938 74.3523 7.58008 73.4997 7.58008ZM73.4997 22.0592C73.4997 22.0592 73.4438 22.0592 73.3858 22.1712C71.0552 25.3014 68.6671 28.4863 65.5423 30.89C65.1422 31.1139 64.9729 31.2259 64.7451 31.2259C64.6897 31.2259 64.6897 31.2259 64.6312 31.1712C63.8925 30.7806 65.5423 27.5931 65.767 27.0905C66.9059 24.8535 68.2695 22.4499 69.6336 20.4369L69.6916 20.3249C70.3164 19.2077 69.1221 18.5931 68.2695 18.1999C67.9278 18.0879 67.7001 17.9759 67.5308 17.9759C66.5642 17.9759 62.5843 27.3145 62.0174 28.6556C61.2761 30.6113 62.6982 32.5124 64.2895 32.5124C66.5642 32.5124 71.1691 26.8092 72.4772 25.0202C72.9303 24.2389 73.4997 23.4551 74.0691 22.6738C73.9552 22.2806 73.7829 22.0592 73.4997 22.0592Z" fill="white"/>
<path d="M69.8613 30.0514C69.8613 31.5072 70.0311 33.4629 71.9642 33.4629C72.192 33.4629 72.4197 33.3509 72.589 33.015C74.636 29.7181 83.2767 17.1374 86.4594 16.1895C87.1982 16.1322 86.8011 15.1816 85.7207 15.1816C85.2677 15.1816 84.7542 15.2936 84.3012 15.7415C80.1493 18.7051 73.5001 29.2702 72.2474 30.7806C73.1585 24.8535 75.8857 20.1582 77.6494 18.3691C77.7048 18.3691 77.08 17.6973 76.2273 17.5306H75.8303C72.9887 17.5306 69.9173 27.7598 69.8613 30.0514Z" fill="white"/>
<path d="M83.7856 33.5762C87.824 33.5762 91.7455 28.209 93.8484 25.3575C94.5871 24.295 95.1565 23.4564 95.4982 23.0111C95.4982 22.5632 95.1565 22.3939 94.9288 22.3939C94.8733 22.3939 94.8149 22.3939 94.8149 22.4512C92.5402 25.5267 87.824 31.7325 83.6717 31.7325C82.0249 31.5632 82.3665 29.5502 83.3331 27.2585C83.6717 27.7064 84.2996 27.9304 84.9799 27.9304C86.9129 27.8731 89.2435 25.0215 89.9823 23.2897V23.1778C90.1541 22.8991 90.2101 22.5632 90.3239 22.1726C90.6651 20.3835 89.3574 18.8184 87.5962 18.8184C86.9714 18.8184 86.288 18.9851 85.6047 19.433C82.0803 21.7246 77.8171 28.433 81.1722 32.4017C81.7971 33.2403 82.7077 33.5762 83.7856 33.5762ZM88.4489 21.0528C88.6766 21.0528 88.8459 21.1101 88.9598 21.2767C89.0737 21.5554 89.0158 21.8913 88.9019 22.3392C88.0492 24.3522 85.4908 26.6439 84.355 26.6439C84.0718 26.6439 83.8995 26.5319 83.7856 26.2533C85.2076 23.6257 87.3685 21.0528 88.4489 21.0528Z" fill="white"/>
<path d="M116.246 14.8457C119.543 8.69727 120.167 0.142578 113.915 0.142578C113.177 0.142578 112.269 0.311849 111.188 0.647789C105.105 2.37956 91.0631 12.3874 91.1765 21.666C91.2349 27.0905 97.6009 29.7728 101.522 30.4994C103.228 30.8353 105.047 31.002 106.753 31.4499C107.719 31.6738 109.197 31.8978 108.061 33.5176C106.639 35.6999 101.522 39.054 99.1923 39.054C98.3397 39.054 97.998 38.7728 97.5425 38.1035C97.4286 37.8796 97.2593 37.8223 97.1454 37.8223C96.9176 37.8223 96.8037 38.1035 96.9176 38.4395C97.3178 40.2285 98.5675 41.2884 100.442 41.2884C102.773 41.2884 105.617 39.4994 107.264 38.1582C108.969 36.5931 111.982 32.9603 109.538 30.4447C106.242 26.8665 95.0985 27.9837 94.0181 23.1217C92.7124 17.2494 106.128 6.62957 108.913 5.23112C110.108 4.61654 112.666 3.2181 114.485 3.2181C114.996 3.2181 115.451 3.33008 115.793 3.55404C117.384 4.61654 116.018 9.42382 113.688 13.8405C112.666 15.6842 108.913 22.1712 106.753 22.1712H106.469C106.297 22.1712 106.183 22.2259 106.072 22.3379C105.73 22.6165 106.014 22.8978 106.242 23.0098C106.639 23.1764 107.038 23.2311 107.436 23.2311C111.074 23.2311 114.768 17.6426 116.246 14.8457Z" fill="white"/>
<path d="M124.486 21.444V21.3893C124.658 21.0534 124.714 20.7174 124.769 20.3841C125.169 18.5378 123.861 16.9727 122.042 16.9727C121.417 16.9727 120.792 17.1393 120.109 17.5872C116.584 19.9362 111.185 28.4336 114.482 32.4023C115.107 33.2409 116.015 33.5768 117.096 33.5768C121.189 33.5768 125.056 28.2096 127.103 25.3581C127.841 24.2956 128.466 23.457 128.808 23.0117C128.808 22.5638 128.466 22.3945 128.238 22.3945C128.18 22.3945 128.124 22.3945 128.124 22.4518C125.85 25.5273 121.189 31.7331 116.982 31.7331C113.232 31.2852 120.734 19.2643 123.064 19.2643C123.178 19.2643 123.35 19.3216 123.406 19.4336C123.861 20.2148 122.439 22.6758 121.814 23.2904C121.587 23.569 120.848 24.2409 121.417 24.4648C121.473 24.5195 121.587 24.5195 121.645 24.5195C122.725 24.5195 124.089 22.2279 124.486 21.444Z" fill="white"/>
<path d="M134.546 15.8539C134.376 15.63 134.093 15.406 133.865 15.182C134.659 13.8956 135.284 12.6664 135.684 11.6039C136.023 10.6534 135.626 8.13776 134.318 8.24971C131.932 8.41901 129.26 12.6117 132.102 15.406C130.34 18.3123 128.349 22.0596 127.099 23.7367C127.044 23.8487 127.099 24.406 127.496 24.406C127.61 24.406 127.782 24.3513 128.121 24.1274C129.429 22.505 130.624 19.9346 133.068 16.4112C133.24 16.6352 133.409 16.8591 133.465 17.0284C134.773 19.4867 127.555 28.1534 127.669 32.4008C127.669 33.6873 128.293 35.755 129.941 35.755C130.113 35.755 130.227 35.7003 130.396 35.643C133.409 34.1899 139.775 24.0154 140.572 22.9529C140.686 22.7862 140.572 22.505 140.345 22.393C140.231 22.3383 140.175 22.281 140.062 22.281C139.948 22.281 139.889 22.3383 139.72 22.4503C138.412 24.182 131.874 34.0779 130.227 33.7992C131.135 30.557 134.604 24.7419 135.398 22.5622C136.251 20.4945 136.934 17.3617 134.546 15.8539ZM134.149 10.5987C134.432 10.5987 134.49 10.9346 134.149 11.8279C133.921 12.5544 133.523 13.3383 133.126 13.9529C132.102 12.6117 133.637 10.5987 134.149 10.5987Z" fill="white"/>
<path d="M147.677 7.58008C147.449 7.58008 147.335 7.68948 147.052 8.02538C145.575 10.0384 143.642 14.0645 143.925 16.6348C143.983 16.9707 144.097 17.1374 144.153 17.1374C144.208 17.1374 144.266 17.028 144.436 16.804C146.086 14.4551 147.622 12.0514 149.327 9.75978C149.438 9.53583 149.78 9.25718 149.61 8.92123C149.382 8.24938 148.53 7.58008 147.677 7.58008ZM147.677 22.0592C147.677 22.0592 147.622 22.0592 147.563 22.1712C145.233 25.3014 142.844 28.4863 139.72 30.89C139.32 31.1139 139.15 31.2259 138.922 31.2259C138.867 31.2259 138.867 31.2259 138.809 31.1712C138.07 30.7806 139.72 27.5931 139.945 27.0905C141.083 24.8535 142.447 22.4499 143.811 20.4369L143.869 20.3249C144.494 19.2077 143.3 18.5931 142.447 18.1999C142.106 18.0879 141.878 17.9759 141.709 17.9759C140.742 17.9759 136.762 27.3145 136.195 28.6556C135.454 30.6113 136.875 32.5124 138.467 32.5124C140.742 32.5124 145.347 26.8092 146.655 25.0202C147.108 24.2389 147.677 23.4551 148.246 22.6738C148.133 22.2806 147.961 22.0592 147.677 22.0592Z" fill="white"/>
<path d="M158.702 17.6992C155.464 17.6992 148.642 27.0924 146.879 29.5508C149.209 25.1341 151.598 21.3893 152.847 20.2148C153.303 19.7669 152.167 18.3138 150.575 18.3138C149.437 18.3138 149.095 18.8737 148.528 19.7669C146.765 22.6185 141.935 31.6758 139.774 37.9362C139.205 39.3919 137.444 45.1497 140.513 45.2044C140.741 43.3034 141.707 40.7331 142.899 37.8815C144.093 35.8138 145.685 33.4102 147.448 31.0039C147.165 33.0742 147.846 34.8633 149.154 35.4779C149.495 35.7018 149.892 35.7565 150.348 35.7565C155.178 35.7565 162.513 24.6315 161.83 20.8294C161.433 19.1523 160.182 17.6992 158.702 17.6992ZM149.04 28.9362C152.961 23.7383 157.055 19.2643 158.477 19.2643C158.702 19.2643 158.874 19.3763 158.93 19.7122C159.5 22.3945 151.939 33.5768 149.381 33.5768C148.528 33.5768 148.243 32.2904 149.04 28.9362Z" fill="white"/>
<path d="M159.384 14.6224H159.498C162.284 14.3437 165.07 14.0651 167.911 13.8958C164.842 19.9896 161.487 28.5443 160.52 32.3463C160.123 33.6302 159.667 37.0963 161.714 37.1536C162.512 31.4505 167.855 20.3255 171.891 13.6719C174.335 13.5625 176.724 13.3932 179.054 13.2266C180.587 13.0573 181.215 10.5417 180.02 10.5989C177.915 10.8776 175.643 11.2135 173.369 11.4375C174.166 10.2083 174.905 9.31248 175.471 8.80988C176.04 8.24998 175.188 6.79688 173.538 6.79688C173.199 6.79688 172.858 6.85158 172.402 7.02083C171.663 7.29948 170.355 9.31248 168.822 12.0521L159.328 13.3385C158.701 13.4505 158.815 14.6224 159.384 14.6224Z" fill="white"/>
<path d="M51.0561 56.7747C51.0693 57.1992 50.9951 57.5742 50.8338 57.8997C50.6776 58.2202 50.4472 58.4702 50.1453 58.6497C49.8408 58.8322 49.4886 58.9282 49.086 58.9412L47.3913 59.0037L47.2324 54.8787L48.7471 54.8162C49.4515 54.7957 50.0076 54.9572 50.4101 55.2957C50.8126 55.6287 51.0271 56.1237 51.0561 56.7747ZM50.1665 56.8062C50.1453 56.3632 50.0129 56.0302 49.7746 55.8062C49.5336 55.5767 49.1946 55.4702 48.7577 55.4832L48.1434 55.5142L48.2493 58.3062L48.9907 58.2747C49.3641 58.2617 49.658 58.1237 49.8699 57.8582C50.0817 57.5952 50.1797 57.2437 50.1665 56.8062Z" fill="white"/>
<path d="M56.6526 58.6968L56.5469 54.5718L59.841 54.4883L59.8517 55.1548L57.4366 55.2173L57.4681 56.2488L59.7032 56.1863L59.7245 56.8633L57.4895 56.9258L57.5109 58.0093L60.053 57.9468L60.0738 58.6133L56.6526 58.6968Z" fill="white"/>
<path d="M67.6566 58.4624L66.7567 58.4834L65.1465 54.3789L66.0678 54.3684L66.9682 56.9934C67.0241 57.1679 67.1009 57.4284 67.2015 57.7749L67.2651 57.5249L67.4024 56.9934L68.2184 54.3269L69.129 54.3164L67.6566 58.4624Z" fill="white"/>
<path d="M81.126 59.7068L81.1367 54.0293H81.9207L81.91 59.7068H81.126Z" fill="white"/>
<path d="M95.9405 58.5798C95.3686 58.5643 94.9288 58.4208 94.6268 58.1423C94.3222 57.8583 94.1768 57.4548 94.1926 56.9343L94.2348 54.3613L95.1143 54.3718L95.0716 56.8818C95.064 57.2103 95.1352 57.4603 95.2837 57.6318C95.4372 57.8063 95.6701 57.8978 95.9827 57.9028C96.2924 57.9108 96.5334 57.8273 96.7032 57.6528C96.8776 57.4733 96.9706 57.2153 96.9782 56.8818L97.0209 54.4028L97.9 54.4238L97.8573 56.9548C97.8415 57.4833 97.6697 57.8898 97.3387 58.1738C97.0047 58.4523 96.539 58.5853 95.9405 58.5798Z" fill="white"/>
<path d="M103.47 58.6816L103.586 54.5566L104.465 54.5776L104.349 58.7026L103.47 58.6816Z" fill="white"/>
<path d="M112.704 58.9834L111.708 57.2959L110.597 58.8999L109.664 58.8689L111.2 56.7539L109.95 54.7539L110.872 54.7854L111.74 56.2749L112.736 54.8479L113.668 54.8894L112.312 56.7959L113.626 59.0144L112.704 58.9834Z" fill="white"/>
</g>
<defs>
<clipPath id="clip0_2937_2136">
<rect width="181" height="60" fill="white"/>
</clipPath>
</defs>
</svg>
